G04 ================== begin FILE IDENTIFICATION RECORD ==================*
G04 Layout Name:  PROIECT_TIE.brd*
G04 Film Name:    ASSEMBLY*
G04 File Format:  Gerber RS274X*
G04 File Origin:  Cadence Allegro 17.2-S025*
G04 Origin Date:  Mon May 29 01:32:26 2023*
G04 *
G04 Layer:  REF DES/ASSEMBLY_TOP*
G04 Layer:  PACKAGE GEOMETRY/ASSEMBLY_TOP*
G04 Layer:  BOARD GEOMETRY/DESIGN_OUTLINE*
G04 *
G04 Offset:    (0.00 0.00)*
G04 Mirror:    No*
G04 Mode:      Positive*
G04 Rotation:  0*
G04 FullContactRelief:  No*
G04 UndefLineWidth:     8.00*
G04 ================== end FILE IDENTIFICATION RECORD ====================*
%FSLAX25Y25*MOIN*%
%IR0*IPPOS*OFA0.00000B0.00000*MIA0B0*SFA1.00000B1.00000*%
%ADD10C,.008*%
%ADD11C,.006*%
%ADD12C,.00591*%
%ADD13C,.00394*%
%ADD14C,.00197*%
%ADD15C,.00787*%
G75*
%LPD*%
G75*
G54D10*
G01X0Y0D02*
Y240000D01*
X240000D01*
Y0D01*
X0D01*
G01X34325Y219247D02*
X34700Y219807D01*
X34950Y220460D01*
Y221207D01*
X34575Y222047D01*
X33950Y222700D01*
X33200Y223167D01*
X31950Y223540D01*
X30825Y223633D01*
X29700Y223447D01*
X28950Y223167D01*
X28200Y222607D01*
X27700Y221953D01*
X27450Y221300D01*
Y220647D01*
X27700Y219993D01*
X28075Y219433D01*
X28575Y218967D01*
G01X27450Y213800D02*
X34950D01*
X33450Y214920D01*
G01X27450D02*
Y212680D01*
G01X7683Y237570D02*
X7875Y237260D01*
X8105Y237053D01*
X8373Y236950D01*
X8680Y237053D01*
X8910Y237260D01*
X9140Y237570D01*
X9217Y237983D01*
Y240050D01*
G01X11550Y236950D02*
Y240050D01*
X11090Y239430D01*
G01Y236950D02*
X12010D01*
G01X5000Y235000D02*
X15000D01*
Y215000D01*
X5000D01*
Y235000D01*
G01X51825Y218447D02*
X52200Y219007D01*
X52450Y219660D01*
Y220407D01*
X52075Y221247D01*
X51450Y221900D01*
X50700Y222367D01*
X49450Y222740D01*
X48325Y222833D01*
X47200Y222647D01*
X46450Y222367D01*
X45700Y221807D01*
X45200Y221153D01*
X44950Y220500D01*
Y219847D01*
X45200Y219193D01*
X45575Y218633D01*
X46075Y218167D01*
G01X51200Y214773D02*
X51950Y214213D01*
X52325Y213560D01*
X52450Y212813D01*
X52200Y211880D01*
X51575Y211227D01*
X50825Y211040D01*
X50075Y211133D01*
X49450Y211507D01*
X48200Y213373D01*
X47325Y214213D01*
X46075Y214773D01*
X44950Y214960D01*
Y211040D01*
G01X77696Y49985D02*
Y48574D01*
X77827Y48278D01*
X78089Y48082D01*
X78417Y48016D01*
X78746Y48082D01*
X79008Y48278D01*
X79139Y48574D01*
Y49985D01*
G01X79960Y49657D02*
X80157Y49854D01*
X80387Y49952D01*
X80649Y49985D01*
X80977Y49919D01*
X81207Y49755D01*
X81273Y49558D01*
X81240Y49361D01*
X81109Y49197D01*
X80452Y48869D01*
X80157Y48640D01*
X79960Y48311D01*
X79894Y48016D01*
X81273D01*
G01X78982Y166969D02*
Y165558D01*
X79113Y165262D01*
X79375Y165066D01*
X79703Y165000D01*
X80032Y165066D01*
X80294Y165262D01*
X80425Y165558D01*
Y166969D01*
G01X81869Y165000D02*
Y166969D01*
X81476Y166575D01*
G01Y165000D02*
X82263D01*
G01X93300Y204633D02*
X85800D01*
Y206967D01*
X86175Y207713D01*
X86675Y208180D01*
X87675Y208367D01*
X88675Y208180D01*
X89300Y207620D01*
X89675Y206967D01*
Y204633D01*
G01Y206967D02*
X93300Y208367D01*
G01X92175Y211947D02*
X92800Y212507D01*
X93175Y213160D01*
X93300Y214000D01*
X93050Y214840D01*
X92550Y215493D01*
X91675Y215960D01*
X90675Y216053D01*
X89675Y215867D01*
X89050Y215400D01*
X88550Y214747D01*
X88425Y214093D01*
X88550Y213440D01*
X89050Y212600D01*
X85800Y212880D01*
Y215400D01*
G01X113300Y204633D02*
X105800D01*
Y206967D01*
X106175Y207713D01*
X106675Y208180D01*
X107675Y208367D01*
X108675Y208180D01*
X109300Y207620D01*
X109675Y206967D01*
Y204633D01*
G01Y206967D02*
X113300Y208367D01*
G01X111800Y211947D02*
X112675Y212507D01*
X113175Y213253D01*
X113300Y214093D01*
X113175Y214840D01*
X112550Y215587D01*
X111800Y216053D01*
X111050Y216147D01*
X110175Y215960D01*
X109550Y215307D01*
X109300Y214653D01*
Y213813D01*
G01Y214653D02*
X108925Y215213D01*
X108300Y215680D01*
X107550Y215867D01*
X106800Y215680D01*
X106175Y215213D01*
X105800Y214373D01*
X105925Y213533D01*
X106425Y212693D01*
G01X138197Y65250D02*
Y72750D01*
X140063D01*
X140810Y72375D01*
X141370Y71875D01*
X141837Y71125D01*
X142210Y70250D01*
X142303Y69000D01*
X142210Y67750D01*
X141837Y66875D01*
X141370Y66125D01*
X140810Y65625D01*
X140063Y65250D01*
X138197D01*
G01X147750D02*
Y72750D01*
X146630Y71250D01*
G01Y65250D02*
X148870D01*
G01X154525Y107383D02*
X147025D01*
Y109717D01*
X147400Y110463D01*
X147900Y110930D01*
X148900Y111117D01*
X149900Y110930D01*
X150525Y110370D01*
X150900Y109717D01*
Y107383D01*
G01Y109717D02*
X154525Y111117D01*
G01Y116750D02*
X147025D01*
X148525Y115630D01*
G01X154525D02*
Y117870D01*
G01X133300Y204633D02*
X125800D01*
Y206967D01*
X126175Y207713D01*
X126675Y208180D01*
X127675Y208367D01*
X128675Y208180D01*
X129300Y207620D01*
X129675Y206967D01*
Y204633D01*
G01Y206967D02*
X133300Y208367D01*
G01X130175Y212227D02*
X129300Y212880D01*
X128800Y213440D01*
X128550Y214187D01*
X128800Y214840D01*
X129300Y215307D01*
X130050Y215680D01*
X130925Y215773D01*
X131675Y215680D01*
X132425Y215307D01*
X133050Y214747D01*
X133300Y214093D01*
X133050Y213347D01*
X132300Y212693D01*
X131175Y212320D01*
X129925Y212227D01*
X128300Y212413D01*
X127425Y212693D01*
X126550Y213160D01*
X125925Y213813D01*
X125800Y214467D01*
X126050Y215120D01*
X126675Y215587D01*
G01X153300Y204633D02*
X145800D01*
Y206967D01*
X146175Y207713D01*
X146675Y208180D01*
X147675Y208367D01*
X148675Y208180D01*
X149300Y207620D01*
X149675Y206967D01*
Y204633D01*
G01Y206967D02*
X153300Y208367D01*
G01Y214000D02*
X153175Y214653D01*
X152800Y215400D01*
X152175Y215867D01*
X151300Y216053D01*
X150425Y215867D01*
X149675Y215307D01*
X149300Y214467D01*
Y213533D01*
X149050Y212973D01*
X148425Y212507D01*
X147550Y212320D01*
X146675Y212600D01*
X146050Y213253D01*
X145800Y214000D01*
X146050Y214747D01*
X146675Y215400D01*
X147550Y215680D01*
X148425Y215493D01*
X149050Y215027D01*
X149300Y214467D01*
Y213533D01*
X149675Y212693D01*
X150425Y212133D01*
X151300Y211947D01*
X152175Y212133D01*
X152800Y212600D01*
X153175Y213347D01*
X153300Y214000D01*
G01X178500Y27500D02*
G03I-10000J0D01*
G01X167343Y43583D02*
X166963Y43833D01*
X166520Y44000D01*
X166013D01*
X165443Y43750D01*
X165000Y43333D01*
X164683Y42833D01*
X164430Y42000D01*
X164367Y41250D01*
X164493Y40500D01*
X164683Y40000D01*
X165063Y39500D01*
X165507Y39167D01*
X165950Y39000D01*
X166393D01*
X166837Y39167D01*
X167217Y39417D01*
X167533Y39750D01*
G01X171810Y39000D02*
Y44000D01*
X169467Y40417D01*
X172633D01*
G01X162500Y38500D02*
Y34500D01*
G01X164500Y36500D02*
X160500D01*
G01X172050Y107683D02*
X164550D01*
Y110017D01*
X164925Y110763D01*
X165425Y111230D01*
X166425Y111417D01*
X167425Y111230D01*
X168050Y110670D01*
X168425Y110017D01*
Y107683D01*
G01Y110017D02*
X172050Y111417D01*
G01X165800Y115277D02*
X165050Y115837D01*
X164675Y116490D01*
X164550Y117237D01*
X164800Y118170D01*
X165425Y118823D01*
X166175Y119010D01*
X166925Y118917D01*
X167550Y118543D01*
X168800Y116677D01*
X169675Y115837D01*
X170925Y115277D01*
X172050Y115090D01*
Y119010D01*
G01X173300Y204633D02*
X165800D01*
Y206967D01*
X166175Y207713D01*
X166675Y208180D01*
X167675Y208367D01*
X168675Y208180D01*
X169300Y207620D01*
X169675Y206967D01*
Y204633D01*
G01Y206967D02*
X173300Y208367D01*
G01Y213813D02*
X171675Y214000D01*
X170300Y214280D01*
X169050Y214653D01*
X167675Y215120D01*
X165800Y215867D01*
Y212133D01*
G01X192500Y137500D02*
Y62500D01*
X217500D01*
Y137500D01*
G01X200557Y118500D02*
Y114917D01*
X200810Y114167D01*
X201317Y113667D01*
X201950Y113500D01*
X202583Y113667D01*
X203090Y114167D01*
X203343Y114917D01*
Y118500D01*
G01X205657Y114500D02*
X206037Y113917D01*
X206543Y113583D01*
X207113Y113500D01*
X207620Y113583D01*
X208127Y114000D01*
X208443Y114500D01*
X208507Y115000D01*
X208380Y115583D01*
X207937Y116000D01*
X207493Y116167D01*
X206923D01*
G01X207493D02*
X207873Y116417D01*
X208190Y116833D01*
X208317Y117333D01*
X208190Y117833D01*
X207873Y118250D01*
X207303Y118500D01*
X206733Y118417D01*
X206163Y118083D01*
G01X192500Y137500D02*
X200000D01*
X202500Y135000D01*
X207500D01*
X210000Y137500D01*
X217500D01*
G01X195843Y181583D02*
X195463Y181833D01*
X195020Y182000D01*
X194513D01*
X193943Y181750D01*
X193500Y181333D01*
X193183Y180833D01*
X192930Y180000D01*
X192867Y179250D01*
X192993Y178500D01*
X193183Y178000D01*
X193563Y177500D01*
X194007Y177167D01*
X194450Y177000D01*
X194893D01*
X195337Y177167D01*
X195717Y177417D01*
X196033Y177750D01*
G01X198157Y178000D02*
X198537Y177417D01*
X199043Y177083D01*
X199613Y177000D01*
X200120Y177083D01*
X200627Y177500D01*
X200943Y178000D01*
X201007Y178500D01*
X200880Y179083D01*
X200437Y179500D01*
X199993Y179667D01*
X199423D01*
G01X199993D02*
X200373Y179917D01*
X200690Y180333D01*
X200817Y180833D01*
X200690Y181333D01*
X200373Y181750D01*
X199803Y182000D01*
X199233Y181917D01*
X198663Y181583D01*
G01X207500Y192500D02*
G03I-10000J0D01*
G01X191500Y203500D02*
Y199500D01*
G01X193500Y201500D02*
X189500D01*
G01X193300Y204633D02*
X185800D01*
Y206967D01*
X186175Y207713D01*
X186675Y208180D01*
X187675Y208367D01*
X188675Y208180D01*
X189300Y207620D01*
X189675Y206967D01*
Y204633D01*
G01Y206967D02*
X193300Y208367D01*
G01Y215120D02*
X185800D01*
X191175Y211667D01*
Y216333D01*
G01X142500Y32500D02*
Y26250D01*
G01Y58750D02*
Y52500D01*
G01X147500Y47500D02*
X137500D01*
G01Y32500D02*
Y52500D01*
G01D02*
X147500D01*
G01D02*
Y32500D01*
G01D02*
X137500D01*
G54D11*
G01X36250Y207800D02*
Y223800D01*
G01X43750D02*
Y207800D01*
G01D02*
X36250D01*
G01X53750Y207000D02*
Y223000D01*
G01X61250Y207000D02*
X53750D01*
G01X36250Y223800D02*
X43750D01*
G01X53750Y223000D02*
X61250D01*
G01D02*
Y207000D01*
G01X75500Y226000D02*
Y204000D01*
G01D02*
X84500D01*
G01D02*
Y226000D01*
G01D02*
X75500D01*
G01X95500D02*
Y204000D01*
G01D02*
X104500D01*
G01D02*
Y226000D01*
G01X115500D02*
Y204000D01*
G01D02*
X124500D01*
G01X104500Y226000D02*
X95500D01*
G01X124500D02*
X115500D01*
G01X145725Y106750D02*
X139275D01*
G01D02*
Y118250D01*
G01D02*
X145725D01*
G01D02*
Y106750D01*
G01X124500Y204000D02*
Y226000D01*
G01X135500D02*
Y204000D01*
G01D02*
X144500D01*
G01D02*
Y226000D01*
G01D02*
X135500D01*
G01X163250Y107050D02*
X156800D01*
G01D02*
Y118550D01*
G01X163250D02*
Y107050D01*
G01X156800Y118550D02*
X163250D01*
G01X175500Y226000D02*
Y204000D01*
G01D02*
X184500D01*
G01X155500Y226000D02*
Y204000D01*
G01D02*
X164500D01*
G01D02*
Y226000D01*
G01X184500D02*
X175500D01*
G01X164500D02*
X155500D01*
G01X184500Y204000D02*
Y226000D01*
G54D12*
G01X35060Y48032D02*
Y51969D01*
X35847D01*
X36162Y51772D01*
X36398Y51510D01*
X36595Y51116D01*
X36753Y50657D01*
X36792Y50000D01*
X36753Y49344D01*
X36595Y48885D01*
X36398Y48491D01*
X36162Y48229D01*
X35847Y48032D01*
X35060D01*
G01X38996D02*
X39075Y48885D01*
X39193Y49607D01*
X39351Y50263D01*
X39547Y50985D01*
X39862Y51969D01*
X38288D01*
G01X35060Y75532D02*
Y79469D01*
X35847D01*
X36162Y79272D01*
X36398Y79010D01*
X36595Y78616D01*
X36753Y78157D01*
X36792Y77500D01*
X36753Y76844D01*
X36595Y76385D01*
X36398Y75991D01*
X36162Y75729D01*
X35847Y75532D01*
X35060D01*
G01X39547D02*
Y79469D01*
X38091Y76647D01*
X40059D01*
G01X35060Y102532D02*
Y106469D01*
X35847D01*
X36162Y106272D01*
X36398Y106010D01*
X36595Y105616D01*
X36753Y105157D01*
X36792Y104500D01*
X36753Y103844D01*
X36595Y103385D01*
X36398Y102991D01*
X36162Y102729D01*
X35847Y102532D01*
X35060D01*
G01X38209Y103319D02*
X38445Y102860D01*
X38760Y102598D01*
X39114Y102532D01*
X39429Y102598D01*
X39744Y102926D01*
X39941Y103319D01*
X39980Y103713D01*
X39902Y104172D01*
X39626Y104500D01*
X39351Y104632D01*
X38996D01*
G01X39351D02*
X39587Y104829D01*
X39784Y105157D01*
X39862Y105550D01*
X39784Y105944D01*
X39587Y106272D01*
X39232Y106469D01*
X38878Y106403D01*
X38524Y106141D01*
G01X35060Y130532D02*
Y134469D01*
X35847D01*
X36162Y134272D01*
X36398Y134010D01*
X36595Y133616D01*
X36753Y133157D01*
X36792Y132500D01*
X36753Y131844D01*
X36595Y131385D01*
X36398Y130991D01*
X36162Y130729D01*
X35847Y130532D01*
X35060D01*
G01X38327Y132172D02*
X38603Y132632D01*
X38839Y132894D01*
X39154Y133025D01*
X39429Y132894D01*
X39626Y132632D01*
X39784Y132238D01*
X39823Y131779D01*
X39784Y131385D01*
X39626Y130991D01*
X39390Y130663D01*
X39114Y130532D01*
X38799Y130663D01*
X38524Y131057D01*
X38366Y131647D01*
X38327Y132304D01*
X38406Y133157D01*
X38524Y133616D01*
X38721Y134075D01*
X38996Y134403D01*
X39272Y134469D01*
X39547Y134338D01*
X39744Y134010D01*
G01X35060Y160532D02*
Y164469D01*
X35847D01*
X36162Y164272D01*
X36398Y164010D01*
X36595Y163616D01*
X36753Y163157D01*
X36792Y162500D01*
X36753Y161844D01*
X36595Y161385D01*
X36398Y160991D01*
X36162Y160729D01*
X35847Y160532D01*
X35060D01*
G01X38327Y163813D02*
X38563Y164206D01*
X38839Y164403D01*
X39154Y164469D01*
X39547Y164338D01*
X39823Y164010D01*
X39902Y163616D01*
X39862Y163222D01*
X39705Y162894D01*
X38918Y162238D01*
X38563Y161779D01*
X38327Y161122D01*
X38248Y160532D01*
X39902D01*
G01X35060Y190532D02*
Y194469D01*
X35847D01*
X36162Y194272D01*
X36398Y194010D01*
X36595Y193616D01*
X36753Y193157D01*
X36792Y192500D01*
X36753Y191844D01*
X36595Y191385D01*
X36398Y190991D01*
X36162Y190729D01*
X35847Y190532D01*
X35060D01*
G01X38209Y191122D02*
X38445Y190794D01*
X38721Y190598D01*
X39075Y190532D01*
X39429Y190663D01*
X39705Y190926D01*
X39902Y191385D01*
X39941Y191910D01*
X39862Y192435D01*
X39665Y192763D01*
X39390Y193025D01*
X39114Y193091D01*
X38839Y193025D01*
X38485Y192763D01*
X38603Y194469D01*
X39665D01*
G01X117560Y52532D02*
Y56469D01*
X118347D01*
X118662Y56272D01*
X118898Y56010D01*
X119095Y55616D01*
X119253Y55157D01*
X119292Y54500D01*
X119253Y53844D01*
X119095Y53385D01*
X118898Y52991D01*
X118662Y52729D01*
X118347Y52532D01*
X117560D01*
G01X120906Y52991D02*
X121181Y52663D01*
X121496Y52532D01*
X121811Y52663D01*
X122087Y53057D01*
X122284Y53647D01*
X122362Y54238D01*
Y54960D01*
X122284Y55550D01*
X122087Y56075D01*
X121851Y56338D01*
X121575Y56469D01*
X121260Y56338D01*
X121024Y56075D01*
X120866Y55682D01*
X120788Y55157D01*
X120866Y54697D01*
X121063Y54238D01*
X121299Y53975D01*
X121575Y53910D01*
X121890Y54041D01*
X122126Y54369D01*
X122362Y54960D01*
G01X115985Y77532D02*
Y81469D01*
X116772D01*
X117087Y81272D01*
X117323Y81010D01*
X117520Y80616D01*
X117678Y80157D01*
X117717Y79500D01*
X117678Y78844D01*
X117520Y78385D01*
X117323Y77991D01*
X117087Y77729D01*
X116772Y77532D01*
X115985D01*
G01X120000D02*
Y81469D01*
X119528Y80682D01*
G01Y77532D02*
X120472D01*
G01X122401Y80813D02*
X122637Y81206D01*
X122913Y81403D01*
X123228Y81469D01*
X123621Y81338D01*
X123897Y81010D01*
X123976Y80616D01*
X123936Y80222D01*
X123779Y79894D01*
X122992Y79238D01*
X122637Y78779D01*
X122401Y78122D01*
X122322Y77532D01*
X123976D01*
G01X115985Y105032D02*
Y108969D01*
X116772D01*
X117087Y108772D01*
X117323Y108510D01*
X117520Y108116D01*
X117678Y107657D01*
X117717Y107000D01*
X117678Y106344D01*
X117520Y105885D01*
X117323Y105491D01*
X117087Y105229D01*
X116772Y105032D01*
X115985D01*
G01X120000D02*
Y108969D01*
X119528Y108182D01*
G01Y105032D02*
X120472D01*
G01X122283Y105819D02*
X122519Y105360D01*
X122834Y105098D01*
X123188Y105032D01*
X123503Y105098D01*
X123818Y105426D01*
X124015Y105819D01*
X124054Y106213D01*
X123976Y106672D01*
X123700Y107000D01*
X123425Y107132D01*
X123070D01*
G01X123425D02*
X123661Y107329D01*
X123858Y107657D01*
X123936Y108050D01*
X123858Y108444D01*
X123661Y108772D01*
X123306Y108969D01*
X122952Y108903D01*
X122598Y108641D01*
G01X115985Y133532D02*
Y137469D01*
X116772D01*
X117087Y137272D01*
X117323Y137010D01*
X117520Y136616D01*
X117678Y136157D01*
X117717Y135500D01*
X117678Y134844D01*
X117520Y134385D01*
X117323Y133991D01*
X117087Y133729D01*
X116772Y133532D01*
X115985D01*
G01X120000D02*
Y137469D01*
X119528Y136682D01*
G01Y133532D02*
X120472D01*
G01X123149D02*
Y137469D01*
X122677Y136682D01*
G01Y133532D02*
X123621D01*
G01X117060Y163032D02*
Y166969D01*
X117847D01*
X118162Y166772D01*
X118398Y166510D01*
X118595Y166116D01*
X118753Y165657D01*
X118792Y165000D01*
X118753Y164344D01*
X118595Y163885D01*
X118398Y163491D01*
X118162Y163229D01*
X117847Y163032D01*
X117060D01*
G01X121075D02*
X121351Y163098D01*
X121665Y163294D01*
X121862Y163622D01*
X121941Y164082D01*
X121862Y164541D01*
X121626Y164935D01*
X121272Y165132D01*
X120878D01*
X120642Y165263D01*
X120445Y165591D01*
X120366Y166050D01*
X120485Y166510D01*
X120760Y166838D01*
X121075Y166969D01*
X121390Y166838D01*
X121665Y166510D01*
X121784Y166050D01*
X121705Y165591D01*
X121508Y165263D01*
X121272Y165132D01*
X120878D01*
X120524Y164935D01*
X120288Y164541D01*
X120209Y164082D01*
X120288Y163622D01*
X120485Y163294D01*
X120799Y163098D01*
X121075Y163032D01*
G01X116485Y190532D02*
Y194469D01*
X117272D01*
X117587Y194272D01*
X117823Y194010D01*
X118020Y193616D01*
X118178Y193157D01*
X118217Y192500D01*
X118178Y191844D01*
X118020Y191385D01*
X117823Y190991D01*
X117587Y190729D01*
X117272Y190532D01*
X116485D01*
G01X120500D02*
Y194469D01*
X120028Y193682D01*
G01Y190532D02*
X120972D01*
G01X123649Y194469D02*
X123334Y194338D01*
X123098Y194010D01*
X122940Y193616D01*
X122822Y193091D01*
X122783Y192500D01*
X122822Y191910D01*
X122940Y191385D01*
X123098Y190991D01*
X123334Y190663D01*
X123649Y190532D01*
X123964Y190663D01*
X124200Y190991D01*
X124358Y191385D01*
X124476Y191910D01*
X124515Y192500D01*
X124476Y193091D01*
X124358Y193616D01*
X124200Y194010D01*
X123964Y194338D01*
X123649Y194469D01*
G54D13*
G01X77047Y56102D02*
G02I-1968J0D01*
G01X71142Y39961D02*
X88858D01*
Y60039D01*
X71142D01*
Y39961D01*
G01X86890Y158898D02*
G02I-1969J0D01*
G01X88858Y175039D02*
X71142D01*
Y154961D01*
X88858D01*
Y175039D01*
G01X177224Y160000D02*
G03I-4724J0D01*
G01X182343Y150157D02*
X162657D01*
Y169843D01*
X182343D01*
Y150157D01*
G01X214724Y160000D02*
G03I-4724J0D01*
G01X219843Y150157D02*
X200157D01*
Y169843D01*
X219843D01*
Y150157D01*
G54D14*
G01X169645Y166278D02*
X169908Y166114D01*
X170203Y166016D01*
X170466D01*
X170728Y166114D01*
X170925Y166278D01*
X171024Y166508D01*
X170958Y166738D01*
X170794Y166935D01*
X170499Y167066D01*
X170105Y167132D01*
X169875Y167263D01*
X169777Y167493D01*
X169842Y167722D01*
X170006Y167887D01*
X170236Y167985D01*
X170466D01*
X170695Y167919D01*
X170892Y167755D01*
G01X171844Y166016D02*
Y167985D01*
X172665D01*
X172927Y167887D01*
X173091Y167755D01*
X173157Y167493D01*
X173091Y167230D01*
X172894Y167066D01*
X172665Y166968D01*
X171844D01*
G01X172665D02*
X173157Y166016D01*
G01X174666D02*
Y167985D01*
X174273Y167591D01*
G01Y166016D02*
X175060D01*
G01X207145Y166278D02*
X207408Y166114D01*
X207703Y166016D01*
X207966D01*
X208228Y166114D01*
X208425Y166278D01*
X208524Y166508D01*
X208458Y166738D01*
X208294Y166935D01*
X207999Y167066D01*
X207605Y167132D01*
X207375Y167263D01*
X207277Y167493D01*
X207342Y167722D01*
X207506Y167887D01*
X207736Y167985D01*
X207966D01*
X208195Y167919D01*
X208392Y167755D01*
G01X209344Y166016D02*
Y167985D01*
X210165D01*
X210427Y167887D01*
X210591Y167755D01*
X210657Y167493D01*
X210591Y167230D01*
X210394Y167066D01*
X210165Y166968D01*
X209344D01*
G01X210165D02*
X210657Y166016D01*
G01X211543Y167657D02*
X211740Y167854D01*
X211970Y167952D01*
X212232Y167985D01*
X212560Y167919D01*
X212790Y167755D01*
X212856Y167558D01*
X212823Y167361D01*
X212692Y167197D01*
X212035Y166869D01*
X211740Y166640D01*
X211543Y166311D01*
X211477Y166016D01*
X212856D01*
G54D15*
G01X28389Y15000D02*
G03I-13386J0D01*
G01X41043Y46752D02*
Y28248D01*
X33957D01*
Y46752D01*
X41043D01*
X40650Y46358D01*
X33957D01*
G01X41043Y74252D02*
Y55748D01*
X33957D01*
Y74252D01*
X41043D01*
X40650Y73858D01*
X33957D01*
G01X41043Y43996D02*
X33957D01*
G01X41043Y44783D02*
X33957D01*
G01Y45571D02*
X41043D01*
G01Y101752D02*
Y83248D01*
X33957D01*
Y101752D01*
X41043D01*
X40650Y101358D01*
X33957D01*
G01X41043Y71496D02*
X33957D01*
G01X41043Y72283D02*
X33957D01*
G01Y73071D02*
X41043D01*
G01Y98996D02*
X33957D01*
G01X41043Y99783D02*
X33957D01*
G01Y100571D02*
X41043D01*
G01Y129252D02*
Y110748D01*
X33957D01*
Y129252D01*
X41043D01*
X40650Y128858D01*
X33957D01*
G01X41043Y159252D02*
Y140748D01*
X33957D01*
Y159252D01*
X41043D01*
X40650Y158858D01*
X33957D01*
G01X41043Y126496D02*
X33957D01*
G01X41043Y127283D02*
X33957D01*
G01Y128071D02*
X41043D01*
G01Y156496D02*
X33957D01*
G01X41043Y157283D02*
X33957D01*
G01Y158071D02*
X41043D01*
G01X33957Y173504D02*
X41043D01*
G01X33957Y172717D02*
X41043D01*
G01Y171929D02*
X33957D01*
G01Y170748D02*
Y189252D01*
X41043D01*
Y170748D01*
X33957D01*
X34350Y171142D01*
X41043D01*
G01X116457Y36004D02*
X123543D01*
G01X116457Y35217D02*
X123543D01*
G01Y34429D02*
X116457D01*
G01Y33248D02*
Y51752D01*
X123543D01*
Y33248D01*
X116457D01*
X116850Y33642D01*
X123543D01*
G01X116457Y58248D02*
Y76752D01*
X123543D01*
Y58248D01*
X116457D01*
X116850Y58642D01*
X123543D01*
G01X116457Y61004D02*
X123543D01*
G01X116457Y60217D02*
X123543D01*
G01Y59429D02*
X116457D01*
G01Y87717D02*
X123543D01*
G01Y86929D02*
X116457D01*
G01Y85748D02*
Y104252D01*
X123543D01*
Y85748D01*
X116457D01*
X116850Y86142D01*
X123543D01*
G01X116457Y116004D02*
X123543D01*
G01X116457Y115217D02*
X123543D01*
G01Y114429D02*
X116457D01*
G01Y113248D02*
Y131752D01*
X123543D01*
Y113248D01*
X116457D01*
X116850Y113642D01*
X123543D01*
G01X116457Y88504D02*
X123543D01*
G01X116457Y146004D02*
X123543D01*
G01X116457Y145217D02*
X123543D01*
G01Y144429D02*
X116457D01*
G01Y143248D02*
Y161752D01*
X123543D01*
Y143248D01*
X116457D01*
X116850Y143642D01*
X123543D01*
G01X116457Y173504D02*
X123543D01*
G01X116457Y172717D02*
X123543D01*
G01Y171929D02*
X116457D01*
G01Y170748D02*
Y189252D01*
X123543D01*
Y170748D01*
X116457D01*
X116850Y171142D01*
X123543D01*
G01X238389Y15000D02*
G03I-13386J0D01*
G01Y225000D02*
G03I-13386J0D01*
M02*
