G04 ================== begin FILE IDENTIFICATION RECORD ==================*
G04 Layout Name:  PROIECT_TIE.brd*
G04 Film Name:    BOTTOM*
G04 File Format:  Gerber RS274X*
G04 File Origin:  Cadence Allegro 17.2-S025*
G04 Origin Date:  Mon May 29 01:11:53 2023*
G04 *
G04 Layer:  ETCH/BOTTOM*
G04 Layer:  PIN/BOTTOM*
G04 Layer:  VIA CLASS/BOTTOM*
G04 *
G04 Offset:    (0.00 0.00)*
G04 Mirror:    No*
G04 Mode:      Positive*
G04 Rotation:  0*
G04 FullContactRelief:  No*
G04 UndefLineWidth:     8.00*
G04 ================== end FILE IDENTIFICATION RECORD ====================*
%FSLAX25Y25*MOIN*%
%IR0*IPPOS*OFA0.00000B0.00000*MIA0B0*SFA1.00000B1.00000*%
%ADD12C,.06*%
%ADD11C,.024*%
%ADD13C,.055*%
%ADD15R,.06X.06*%
%ADD14R,.055X.055*%
%ADD10C,.15748*%
%ADD16C,.012*%
%ADD17C,.044*%
%ADD18C,.07004*%
G75*
%LPD*%
G75*
G36*
G01X90500Y31500D02*
X89500Y32500D01*
Y51000D01*
X79000D01*
Y37500D01*
X78500Y37000D01*
X56000D01*
X55500Y37500D01*
Y45000D01*
X56000Y45500D01*
X72000D01*
Y51000D01*
X5000D01*
X5001Y157001D01*
Y204500D01*
X5000D01*
X5001Y204999D01*
Y225990D01*
X195000Y226044D01*
Y216500D01*
X194000Y215500D01*
X65500D01*
Y204500D01*
X19375D01*
X19000Y204000D01*
Y164457D01*
X71500Y163957D01*
Y176500D01*
X72000Y177000D01*
X100000D01*
Y171000D01*
X88500D01*
Y161500D01*
X101000D01*
Y156000D01*
X81202D01*
Y157000D01*
G03X74798I-3202J0D01*
G01Y156000D01*
X26483D01*
G03X26341Y155659I0J-200D01*
G01X26500Y155500D01*
Y62000D01*
X27500Y61000D01*
X81298D01*
Y59000D01*
G03X87702I3202J0D01*
G01Y61000D01*
X103898D01*
Y53398D01*
X104000D01*
Y48500D01*
X146000D01*
X147500Y50000D01*
Y76000D01*
X189880D01*
G03X190120I120J4000D01*
G01X198000D01*
Y63500D01*
X157000D01*
Y31500D01*
X90500D01*
G37*
%LPC*%
G75*
G54D18*
X10000Y220000D03*
X190000Y70000D03*
%LPD*%
G75*
G54D10*
X15003Y15000D03*
X225003D03*
Y225000D03*
G54D11*
X22500Y180627D03*
X25500Y202000D03*
X49500Y46000D03*
X30000Y68000D03*
X37500Y77500D03*
Y107500D03*
X30000Y149000D03*
X38000Y138500D03*
X56000Y161161D03*
X37500Y195000D03*
X47500Y211600D03*
X30000Y230000D03*
X61500Y56398D03*
X60957Y41043D03*
X84500Y59000D03*
Y43602D03*
Y67500D03*
X61500Y158602D03*
X78000Y157000D03*
X82500Y200000D03*
X76000Y202000D03*
X62500Y210800D03*
X88000Y221500D03*
X97000Y56398D03*
X101500Y53839D03*
X100000Y110000D03*
X114000Y130500D03*
X98000Y158602D03*
X97000Y173957D03*
X97500Y179500D03*
X111000Y161000D03*
Y190000D03*
X114000Y197000D03*
X107000Y221500D03*
X120000Y55000D03*
Y80000D03*
Y110000D03*
X135000Y172500D03*
Y154500D03*
X128500Y221500D03*
X147500D03*
X155000Y27500D03*
X150000Y110000D03*
X167000Y221500D03*
X180000Y110000D03*
Y140000D03*
X190000Y160000D03*
X185000Y175000D03*
X186500Y221500D03*
X227500Y90000D03*
Y61000D03*
X220000Y100000D03*
X227500Y110000D03*
Y160000D03*
G54D12*
X10000Y220000D03*
Y230000D03*
X173500Y27500D03*
X163500D03*
X190000Y70000D03*
Y80000D03*
Y90000D03*
Y100000D03*
Y110000D03*
Y120000D03*
X202500Y192500D03*
X192500D03*
X220000Y70000D03*
Y80000D03*
Y90000D03*
Y100000D03*
Y110000D03*
Y120000D03*
Y130000D03*
G54D13*
X142500Y20000D03*
G54D14*
Y65000D03*
G54D15*
X190000Y130000D03*
G54D16*
G01X22500Y180627D02*
X92373D01*
X93500Y179500D01*
X97500D01*
G01X25500Y202000D02*
X76000D01*
G01X49500Y46000D02*
Y15700D01*
X50700Y14500D01*
X180500D01*
Y27500D01*
G01X37500Y77500D02*
X104300D01*
X105500Y76300D01*
Y55000D01*
X120000D01*
G01X37500Y107500D02*
X97940D01*
X98840Y106600D01*
Y87360D01*
X103700Y82500D01*
X117500D01*
X120000Y80000D01*
G01X111000Y161000D02*
Y139700D01*
X109800Y138500D01*
X38000D01*
G01X114000Y197000D02*
X39500D01*
X37500Y195000D01*
G01X84500Y43602D02*
Y20000D01*
X142500D01*
G01X82500Y200000D02*
X84800D01*
X85000Y199800D01*
X115160D01*
X115333Y199627D01*
X148173D01*
X150000Y197800D01*
Y142500D01*
X152500Y140000D01*
X180000D01*
G01X100000Y110000D02*
X120000D01*
G01X114000Y130500D02*
Y197000D01*
G01X111000Y190000D02*
Y161000D01*
G01X142500Y65000D02*
Y80000D01*
G01D02*
Y102500D01*
X150000D01*
Y110000D01*
G01X190000Y80000D02*
X142500D01*
G01X135000Y172500D02*
Y154500D01*
G01X163500Y27500D02*
X155000D01*
G01X180500D02*
X173500D01*
G01X190000Y120000D02*
X175000D01*
Y100000D01*
X190000D01*
G01X180500Y27500D02*
X190000D01*
Y56000D01*
X192000Y58000D01*
X231300D01*
X232500Y59200D01*
Y98800D01*
X231300Y100000D01*
X220000D01*
G01X190000Y80000D02*
Y90000D01*
G01Y110000D02*
X180000D01*
G01X190000D02*
X210000D01*
Y192500D01*
X202500D01*
G01X190000Y130000D02*
Y120000D01*
G01Y130000D02*
Y160000D01*
G01X185000Y175000D02*
Y192500D01*
X192500D01*
G01X220000Y80000D02*
Y70000D01*
G01X227500Y61000D02*
Y80000D01*
X220000D01*
G01Y120000D02*
Y110000D01*
G01D02*
X227500D01*
G01Y90000D02*
X220000D01*
G01X227500Y110000D02*
Y160000D01*
G54D17*
G01X10000Y216298D02*
Y220000D01*
G01D02*
Y223702D01*
G01Y220000D02*
X13702D01*
G01X10000Y230000D02*
X30000D01*
G01X84500Y67500D02*
X79600D01*
X79342Y67758D01*
X34142D01*
X33900Y68000D01*
X30000D01*
G01X78000Y157000D02*
Y149000D01*
X30000D01*
G01X84500Y67500D02*
Y59000D01*
G01X190000Y66298D02*
Y70000D01*
G01D02*
Y73702D01*
G01X186298Y70000D02*
X190000D01*
G01D02*
X193702D01*
M02*
