G04 ================== begin FILE IDENTIFICATION RECORD ==================*
G04 Layout Name:  PROIECT_TIE.brd*
G04 Film Name:    SMBOTTOM*
G04 File Format:  Gerber RS274X*
G04 File Origin:  Cadence Allegro 17.2-S025*
G04 Origin Date:  Mon May 29 01:20:58 2023*
G04 *
G04 Layer:  VIA CLASS/SOLDERMASK_BOTTOM*
G04 Layer:  PIN/SOLDERMASK_BOTTOM*
G04 Layer:  PACKAGE GEOMETRY/SOLDERMASK_BOTTOM*
G04 Layer:  DRC ERROR CLASS/SOLDERMASK_BOTTOM*
G04 Layer:  BOARD GEOMETRY/SOLDERMASK_BOTTOM*
G04 Layer:  BOARD GEOMETRY/DESIGN_OUTLINE*
G04 *
G04 Offset:    (0.00 0.00)*
G04 Mirror:    No*
G04 Mode:      Positive*
G04 Rotation:  0*
G04 FullContactRelief:  No*
G04 UndefLineWidth:     8.00*
G04 ================== end FILE IDENTIFICATION RECORD ====================*
%FSLAX25Y25*MOIN*%
%IR0*IPPOS*OFA0.00000B0.00000*MIA0B0*SFA1.00000B1.00000*%
%ADD11C,.044*%
%ADD13C,.055*%
%ADD12C,.075*%
%ADD14R,.055X.055*%
%ADD15R,.075X.075*%
%ADD10C,.16535*%
%ADD16C,.008*%
G75*
%LPD*%
G75*
G54D10*
X15003Y15000D03*
X225003D03*
Y225000D03*
G54D11*
X22500Y180627D03*
X25500Y202000D03*
X49500Y46000D03*
X30000Y68000D03*
X37500Y77500D03*
Y107500D03*
X30000Y149000D03*
X38000Y138500D03*
X56000Y161161D03*
X37500Y195000D03*
X47500Y211600D03*
X30000Y230000D03*
X61500Y56398D03*
X60957Y41043D03*
X84500Y59000D03*
Y43602D03*
Y67500D03*
X61500Y158602D03*
X78000Y157000D03*
X82500Y200000D03*
X76000Y202000D03*
X62500Y210800D03*
X88000Y221500D03*
X97000Y56398D03*
X101500Y53839D03*
X100000Y110000D03*
X114000Y130500D03*
X98000Y158602D03*
X97000Y173957D03*
X97500Y179500D03*
X111000Y161000D03*
Y190000D03*
X114000Y197000D03*
X107000Y221500D03*
X120000Y55000D03*
Y80000D03*
Y110000D03*
X135000Y172500D03*
Y154500D03*
X128500Y221500D03*
X147500D03*
X155000Y27500D03*
X150000Y110000D03*
X167000Y221500D03*
X180000Y110000D03*
Y140000D03*
X190000Y160000D03*
X185000Y175000D03*
X186500Y221500D03*
X227500Y90000D03*
Y61000D03*
X220000Y100000D03*
X227500Y110000D03*
Y160000D03*
G54D12*
X10000Y220000D03*
Y230000D03*
X173500Y27500D03*
X163500D03*
X190000Y70000D03*
Y80000D03*
Y90000D03*
Y100000D03*
Y110000D03*
Y120000D03*
X202500Y192500D03*
X192500D03*
X220000Y70000D03*
Y80000D03*
Y90000D03*
Y100000D03*
Y110000D03*
Y120000D03*
Y130000D03*
G54D13*
X142500Y20000D03*
G54D14*
Y65000D03*
G54D15*
X190000Y130000D03*
G54D16*
G01X0Y0D02*
Y240000D01*
X240000D01*
Y0D01*
X0D01*
M02*
