G04 ================== begin FILE IDENTIFICATION RECORD ==================*
G04 Layout Name:  PROIECT_TIE.brd*
G04 Film Name:    SSTOP*
G04 File Format:  Gerber RS274X*
G04 File Origin:  Cadence Allegro 17.2-S025*
G04 Origin Date:  Mon May 29 01:15:47 2023*
G04 *
G04 Layer:  REF DES/SILKSCREEN_TOP*
G04 Layer:  PACKAGE GEOMETRY/SILKSCREEN_TOP*
G04 Layer:  BOARD GEOMETRY/SILKSCREEN_TOP*
G04 Layer:  BOARD GEOMETRY/DESIGN_OUTLINE*
G04 *
G04 Offset:    (0.00 0.00)*
G04 Mirror:    No*
G04 Mode:      Positive*
G04 Rotation:  0*
G04 FullContactRelief:  No*
G04 UndefLineWidth:     8.00*
G04 ================== end FILE IDENTIFICATION RECORD ====================*
%FSLAX25Y25*MOIN*%
%IR0*IPPOS*OFA0.00000B0.00000*MIA0B0*SFA1.00000B1.00000*%
%ADD10C,.02362*%
%ADD11C,.005*%
%ADD12C,.008*%
%ADD13C,.006*%
%ADD14C,.00591*%
%ADD15C,.00197*%
%ADD16C,.00984*%
%ADD17C,.00787*%
G75*
%LPD*%
G75*
G54D10*
G01X77835Y56102D02*
G02I-1181J0D01*
G01X84528Y158898D02*
G02I-1182J0D01*
G54D11*
G01X197513Y43750D02*
Y46250D01*
X198047D01*
X198260Y46125D01*
X198420Y45958D01*
X198553Y45708D01*
X198660Y45417D01*
X198687Y45000D01*
X198660Y44583D01*
X198553Y44292D01*
X198420Y44042D01*
X198260Y43875D01*
X198047Y43750D01*
X197513D01*
G01X200780D02*
Y45417D01*
G01Y45125D02*
X200673Y45292D01*
X200513Y45375D01*
X200327Y45417D01*
X200140Y45333D01*
X199980Y45167D01*
X199873Y44917D01*
X199820Y44583D01*
X199873Y44250D01*
X199980Y44000D01*
X200140Y43833D01*
X200327Y43750D01*
X200513Y43792D01*
X200673Y43917D01*
X200780Y44083D01*
G01X202020Y45417D02*
X202500Y43750D01*
X202980Y45417D01*
G01X204700D02*
Y43750D01*
G01Y46083D02*
X204647Y46125D01*
Y46208D01*
X204700Y46250D01*
X204753Y46208D01*
Y46125D01*
X204700Y46083D01*
G01X207380Y46250D02*
Y43750D01*
G01Y44125D02*
X207273Y43917D01*
X207113Y43792D01*
X206927Y43750D01*
X206713Y43833D01*
X206553Y44042D01*
X206447Y44292D01*
X206420Y44583D01*
X206447Y44875D01*
X206553Y45125D01*
X206713Y45333D01*
X206927Y45417D01*
X207113Y45375D01*
X207247Y45292D01*
X207380Y45125D01*
G01X210767Y46250D02*
Y43750D01*
X211833D01*
G01X213047Y45417D02*
Y44250D01*
X213153Y43958D01*
X213313Y43792D01*
X213500Y43750D01*
X213687Y43792D01*
X213847Y43958D01*
X213953Y44250D01*
G01Y43750D02*
Y45417D01*
G01X216127Y45208D02*
X215940Y45375D01*
X215780Y45417D01*
X215567Y45333D01*
X215407Y45167D01*
X215300Y44875D01*
X215273Y44583D01*
X215300Y44292D01*
X215407Y44042D01*
X215567Y43833D01*
X215780Y43750D01*
X215967Y43833D01*
X216127Y44000D01*
G01X218380Y43750D02*
Y45417D01*
G01Y45125D02*
X218273Y45292D01*
X218113Y45375D01*
X217927Y45417D01*
X217740Y45333D01*
X217580Y45167D01*
X217473Y44917D01*
X217420Y44583D01*
X217473Y44250D01*
X217580Y44000D01*
X217740Y43833D01*
X217927Y43750D01*
X218113Y43792D01*
X218273Y43917D01*
X218380Y44083D01*
G01X197367Y41750D02*
Y39250D01*
X198433D01*
G01X200100Y40917D02*
Y39250D01*
G01Y41583D02*
X200047Y41625D01*
Y41708D01*
X200100Y41750D01*
X200153Y41708D01*
Y41625D01*
X200100Y41583D01*
G01X201847Y39250D02*
Y40917D01*
G01Y40500D02*
X201953Y40708D01*
X202113Y40875D01*
X202327Y40917D01*
X202513Y40875D01*
X202673Y40708D01*
X202753Y40417D01*
Y39250D01*
G01X204500Y41750D02*
Y39250D01*
G01X204127Y40917D02*
X204873D01*
G01X206300Y40375D02*
X207153D01*
X207073Y40667D01*
X206940Y40833D01*
X206753Y40917D01*
X206567Y40875D01*
X206407Y40750D01*
X206300Y40458D01*
X206247Y40208D01*
Y39958D01*
X206300Y39708D01*
X206433Y39458D01*
X206593Y39292D01*
X206780Y39250D01*
X206967Y39333D01*
X207153Y39583D01*
G01X210407Y39250D02*
Y41750D01*
X211100Y39667D01*
X211793Y41750D01*
Y39250D01*
G01X213300Y40917D02*
Y39250D01*
G01Y41583D02*
X213247Y41625D01*
Y41708D01*
X213300Y41750D01*
X213353Y41708D01*
Y41625D01*
X213300Y41583D01*
G01X215127Y39250D02*
Y40917D01*
G01Y40583D02*
X215260Y40750D01*
X215393Y40875D01*
X215580Y40917D01*
X215713Y40875D01*
X215873Y40750D01*
G01X217247Y40917D02*
Y39750D01*
X217353Y39458D01*
X217513Y39292D01*
X217700Y39250D01*
X217887Y39292D01*
X218047Y39458D01*
X218153Y39750D01*
G01Y39250D02*
Y40917D01*
G01X219447Y39250D02*
Y40917D01*
G01Y40500D02*
X219553Y40708D01*
X219713Y40875D01*
X219927Y40917D01*
X220113Y40875D01*
X220273Y40708D01*
X220353Y40417D01*
Y39250D01*
G01X222580D02*
Y40917D01*
G01Y40625D02*
X222473Y40792D01*
X222313Y40875D01*
X222127Y40917D01*
X221940Y40833D01*
X221780Y40667D01*
X221673Y40417D01*
X221620Y40083D01*
X221673Y39750D01*
X221780Y39500D01*
X221940Y39333D01*
X222127Y39250D01*
X222313Y39292D01*
X222473Y39417D01*
X222580Y39583D01*
G01X197567Y35250D02*
Y37750D01*
X198207D01*
X198420Y37625D01*
X198580Y37333D01*
X198633Y37000D01*
X198580Y36667D01*
X198447Y36417D01*
X198207Y36292D01*
X197567D01*
G01X200780Y35250D02*
Y36917D01*
G01Y36625D02*
X200673Y36792D01*
X200513Y36875D01*
X200327Y36917D01*
X200140Y36833D01*
X199980Y36667D01*
X199873Y36417D01*
X199820Y36083D01*
X199873Y35750D01*
X199980Y35500D01*
X200140Y35333D01*
X200327Y35250D01*
X200513Y35292D01*
X200673Y35417D01*
X200780Y35583D01*
G01X202047Y36917D02*
Y35750D01*
X202153Y35458D01*
X202313Y35292D01*
X202500Y35250D01*
X202687Y35292D01*
X202847Y35458D01*
X202953Y35750D01*
G01Y35250D02*
Y36917D01*
G01X204247Y35250D02*
Y36917D01*
G01Y36500D02*
X204353Y36708D01*
X204513Y36875D01*
X204727Y36917D01*
X204913Y36875D01*
X205073Y36708D01*
X205153Y36417D01*
Y35250D01*
G01X208513D02*
Y37750D01*
X209047D01*
X209260Y37625D01*
X209420Y37458D01*
X209553Y37208D01*
X209660Y36917D01*
X209687Y36500D01*
X209660Y36083D01*
X209553Y35792D01*
X209420Y35542D01*
X209260Y35375D01*
X209047Y35250D01*
X208513D01*
G01X211780D02*
Y36917D01*
G01Y36625D02*
X211673Y36792D01*
X211513Y36875D01*
X211327Y36917D01*
X211140Y36833D01*
X210980Y36667D01*
X210873Y36417D01*
X210820Y36083D01*
X210873Y35750D01*
X210980Y35500D01*
X211140Y35333D01*
X211327Y35250D01*
X211513Y35292D01*
X211673Y35417D01*
X211780Y35583D01*
G01X213127Y35250D02*
Y36917D01*
G01Y36583D02*
X213260Y36750D01*
X213393Y36875D01*
X213580Y36917D01*
X213713Y36875D01*
X213873Y36750D01*
G01X215700Y36917D02*
Y35250D01*
G01Y37583D02*
X215647Y37625D01*
Y37708D01*
X215700Y37750D01*
X215753Y37708D01*
Y37625D01*
X215700Y37583D01*
G01X218380Y35250D02*
Y36917D01*
G01Y36625D02*
X218273Y36792D01*
X218113Y36875D01*
X217927Y36917D01*
X217740Y36833D01*
X217580Y36667D01*
X217473Y36417D01*
X217420Y36083D01*
X217473Y35750D01*
X217580Y35500D01*
X217740Y35333D01*
X217927Y35250D01*
X218113Y35292D01*
X218273Y35417D01*
X218380Y35583D01*
G01X198587Y54459D02*
X198427Y54584D01*
X198240Y54667D01*
X198027D01*
X197787Y54542D01*
X197600Y54334D01*
X197467Y54084D01*
X197360Y53667D01*
X197333Y53292D01*
X197387Y52917D01*
X197467Y52667D01*
X197627Y52417D01*
X197813Y52250D01*
X198000Y52167D01*
X198187D01*
X198373Y52250D01*
X198533Y52375D01*
X198667Y52542D01*
G01X200680Y52167D02*
Y53834D01*
G01Y53542D02*
X200573Y53709D01*
X200413Y53792D01*
X200227Y53834D01*
X200040Y53750D01*
X199880Y53584D01*
X199773Y53334D01*
X199720Y53000D01*
X199773Y52667D01*
X199880Y52417D01*
X200040Y52250D01*
X200227Y52167D01*
X200413Y52209D01*
X200573Y52334D01*
X200680Y52500D01*
G01X202400Y52167D02*
Y54667D01*
G01X204200Y53292D02*
X205053D01*
X204973Y53584D01*
X204840Y53750D01*
X204653Y53834D01*
X204467Y53792D01*
X204307Y53667D01*
X204200Y53375D01*
X204147Y53125D01*
Y52875D01*
X204200Y52625D01*
X204333Y52375D01*
X204493Y52209D01*
X204680Y52167D01*
X204867Y52250D01*
X205053Y52500D01*
G01X206800Y53834D02*
Y52167D01*
G01Y54500D02*
X206747Y54542D01*
Y54625D01*
X206800Y54667D01*
X206853Y54625D01*
Y54542D01*
X206800Y54500D01*
G01X209480Y54667D02*
Y52167D01*
G01Y52542D02*
X209373Y52334D01*
X209213Y52209D01*
X209027Y52167D01*
X208813Y52250D01*
X208653Y52459D01*
X208547Y52709D01*
X208520Y53000D01*
X208547Y53292D01*
X208653Y53542D01*
X208813Y53750D01*
X209027Y53834D01*
X209213Y53792D01*
X209347Y53709D01*
X209480Y53542D01*
G01X211200Y52167D02*
X211040Y52209D01*
X210880Y52375D01*
X210773Y52667D01*
X210720Y53000D01*
X210773Y53334D01*
X210880Y53625D01*
X211040Y53792D01*
X211200Y53834D01*
X211360Y53792D01*
X211520Y53625D01*
X211627Y53334D01*
X211653Y53000D01*
X211627Y52667D01*
X211520Y52375D01*
X211360Y52209D01*
X211200Y52167D01*
G01X213000Y52459D02*
X213133Y52292D01*
X213320Y52167D01*
X213480D01*
X213640Y52250D01*
X213747Y52375D01*
X213800Y52542D01*
X213773Y52792D01*
X213667Y52917D01*
X213187Y53167D01*
X213080Y53459D01*
X213133Y53667D01*
X213240Y53792D01*
X213400Y53834D01*
X213560Y53792D01*
X213720Y53667D01*
G01X216027Y53625D02*
X215840Y53792D01*
X215680Y53834D01*
X215467Y53750D01*
X215307Y53584D01*
X215200Y53292D01*
X215173Y53000D01*
X215200Y52709D01*
X215307Y52459D01*
X215467Y52250D01*
X215680Y52167D01*
X215867Y52250D01*
X216027Y52417D01*
G01X217800Y52167D02*
X217640Y52209D01*
X217480Y52375D01*
X217373Y52667D01*
X217320Y53000D01*
X217373Y53334D01*
X217480Y53625D01*
X217640Y53792D01*
X217800Y53834D01*
X217960Y53792D01*
X218120Y53625D01*
X218227Y53334D01*
X218253Y53000D01*
X218227Y52667D01*
X218120Y52375D01*
X217960Y52209D01*
X217800Y52167D01*
G01X219520Y51334D02*
Y53834D01*
G01Y53459D02*
X219653Y53667D01*
X219787Y53792D01*
X220000Y53834D01*
X220187Y53792D01*
X220373Y53584D01*
X220453Y53292D01*
X220480Y53000D01*
X220453Y52709D01*
X220373Y52417D01*
X220213Y52250D01*
X220000Y52167D01*
X219813Y52209D01*
X219627Y52334D01*
X219520Y52500D01*
G01X197213Y33250D02*
Y31458D01*
X197320Y31083D01*
X197533Y30833D01*
X197800Y30750D01*
X198067Y30833D01*
X198280Y31083D01*
X198387Y31458D01*
Y33250D01*
G01X199467Y30750D02*
Y33250D01*
X200107D01*
X200320Y33125D01*
X200480Y32833D01*
X200533Y32500D01*
X200480Y32167D01*
X200347Y31917D01*
X200107Y31792D01*
X199467D01*
G01X202413Y32083D02*
X202520Y32208D01*
X202600Y32417D01*
X202653Y32708D01*
X202600Y32958D01*
X202493Y33125D01*
X202307Y33250D01*
X201587D01*
Y30750D01*
X202467D01*
X202653Y30917D01*
X202760Y31167D01*
X202813Y31458D01*
X202760Y31750D01*
X202600Y32000D01*
X202413Y32083D01*
X201587D01*
G01X207133Y30750D02*
X206067D01*
Y33250D01*
X207133D01*
G01X206707Y32042D02*
X206067D01*
G01X208800Y33250D02*
Y30750D01*
G01X208187Y33250D02*
X209413D01*
G01X211000D02*
Y30750D01*
G01X210387Y33250D02*
X211613D01*
G01X212880D02*
X213520D01*
G01X213200D02*
Y30750D01*
G01X212880D02*
X213520D01*
G01X217093Y32833D02*
X217253Y33083D01*
X217440Y33208D01*
X217653Y33250D01*
X217920Y33167D01*
X218107Y32958D01*
X218160Y32708D01*
X218133Y32458D01*
X218027Y32250D01*
X217493Y31833D01*
X217253Y31542D01*
X217093Y31125D01*
X217040Y30750D01*
X218160D01*
G01X219800Y33250D02*
X219587Y33167D01*
X219427Y32958D01*
X219320Y32708D01*
X219240Y32375D01*
X219213Y32000D01*
X219240Y31625D01*
X219320Y31292D01*
X219427Y31042D01*
X219587Y30833D01*
X219800Y30750D01*
X220013Y30833D01*
X220173Y31042D01*
X220280Y31292D01*
X220360Y31625D01*
X220387Y32000D01*
X220360Y32375D01*
X220280Y32708D01*
X220173Y32958D01*
X220013Y33167D01*
X219800Y33250D01*
G01X221493Y32833D02*
X221653Y33083D01*
X221840Y33208D01*
X222053Y33250D01*
X222320Y33167D01*
X222507Y32958D01*
X222560Y32708D01*
X222533Y32458D01*
X222427Y32250D01*
X221893Y31833D01*
X221653Y31542D01*
X221493Y31125D01*
X221440Y30750D01*
X222560D01*
G01X223613Y31250D02*
X223773Y30958D01*
X223987Y30792D01*
X224227Y30750D01*
X224440Y30792D01*
X224653Y31000D01*
X224787Y31250D01*
X224813Y31500D01*
X224760Y31792D01*
X224573Y32000D01*
X224387Y32083D01*
X224147D01*
G01X224387D02*
X224547Y32208D01*
X224680Y32417D01*
X224733Y32667D01*
X224680Y32917D01*
X224547Y33125D01*
X224307Y33250D01*
X224067Y33208D01*
X223827Y33042D01*
G01X198060Y49417D02*
X198593D01*
Y48667D01*
X198433Y48417D01*
X198247Y48250D01*
X197980Y48167D01*
X197713Y48250D01*
X197527Y48417D01*
X197367Y48667D01*
X197260Y48959D01*
X197207Y49292D01*
Y49584D01*
X197260Y49834D01*
X197367Y50125D01*
X197527Y50375D01*
X197687Y50542D01*
X197900Y50667D01*
X198087D01*
X198300Y50584D01*
X198460Y50417D01*
G01X199727Y48167D02*
Y49834D01*
G01Y49500D02*
X199860Y49667D01*
X199993Y49792D01*
X200180Y49834D01*
X200313Y49792D01*
X200473Y49667D01*
G01X201847Y49834D02*
Y48667D01*
X201953Y48375D01*
X202113Y48209D01*
X202300Y48167D01*
X202487Y48209D01*
X202647Y48375D01*
X202753Y48667D01*
G01Y48167D02*
Y49834D01*
G01X204020Y47334D02*
Y49834D01*
G01Y49459D02*
X204153Y49667D01*
X204287Y49792D01*
X204500Y49834D01*
X204687Y49792D01*
X204873Y49584D01*
X204953Y49292D01*
X204980Y49000D01*
X204953Y48709D01*
X204873Y48417D01*
X204713Y48250D01*
X204500Y48167D01*
X204313Y48209D01*
X204127Y48334D01*
X204020Y48500D01*
G01X207180Y48167D02*
Y49834D01*
G01Y49542D02*
X207073Y49709D01*
X206913Y49792D01*
X206727Y49834D01*
X206540Y49750D01*
X206380Y49584D01*
X206273Y49334D01*
X206220Y49000D01*
X206273Y48667D01*
X206380Y48417D01*
X206540Y48250D01*
X206727Y48167D01*
X206913Y48209D01*
X207073Y48334D01*
X207180Y48500D01*
G01X210593Y49209D02*
X210780Y49500D01*
X210940Y49667D01*
X211153Y49750D01*
X211340Y49667D01*
X211473Y49500D01*
X211580Y49250D01*
X211607Y48959D01*
X211580Y48709D01*
X211473Y48459D01*
X211313Y48250D01*
X211127Y48167D01*
X210913Y48250D01*
X210727Y48500D01*
X210620Y48875D01*
X210593Y49292D01*
X210647Y49834D01*
X210727Y50125D01*
X210860Y50417D01*
X211047Y50625D01*
X211233Y50667D01*
X211420Y50584D01*
X211553Y50375D01*
G54D12*
G01X0Y0D02*
Y240000D01*
X240000D01*
Y0D01*
X0D01*
G01X34325Y219247D02*
X34700Y219807D01*
X34950Y220460D01*
Y221207D01*
X34575Y222047D01*
X33950Y222700D01*
X33200Y223167D01*
X31950Y223540D01*
X30825Y223633D01*
X29700Y223447D01*
X28950Y223167D01*
X28200Y222607D01*
X27700Y221953D01*
X27450Y221300D01*
Y220647D01*
X27700Y219993D01*
X28075Y219433D01*
X28575Y218967D01*
G01X27450Y213800D02*
X34950D01*
X33450Y214920D01*
G01X27450D02*
Y212680D01*
G01X7683Y211570D02*
X7875Y211260D01*
X8105Y211053D01*
X8373Y210950D01*
X8680Y211053D01*
X8910Y211260D01*
X9140Y211570D01*
X9217Y211983D01*
Y214050D01*
G01X11550Y210950D02*
Y214050D01*
X11090Y213430D01*
G01Y210950D02*
X12010D01*
G01X5000Y235000D02*
X15000D01*
Y215000D01*
X5000D01*
Y235000D01*
G01X51825Y218447D02*
X52200Y219007D01*
X52450Y219660D01*
Y220407D01*
X52075Y221247D01*
X51450Y221900D01*
X50700Y222367D01*
X49450Y222740D01*
X48325Y222833D01*
X47200Y222647D01*
X46450Y222367D01*
X45700Y221807D01*
X45200Y221153D01*
X44950Y220500D01*
Y219847D01*
X45200Y219193D01*
X45575Y218633D01*
X46075Y218167D01*
G01X51200Y214773D02*
X51950Y214213D01*
X52325Y213560D01*
X52450Y212813D01*
X52200Y211880D01*
X51575Y211227D01*
X50825Y211040D01*
X50075Y211133D01*
X49450Y211507D01*
X48200Y213373D01*
X47325Y214213D01*
X46075Y214773D01*
X44950Y214960D01*
Y211040D01*
G01X78196Y63485D02*
Y62074D01*
X78327Y61778D01*
X78589Y61582D01*
X78917Y61516D01*
X79246Y61582D01*
X79508Y61778D01*
X79639Y62074D01*
Y63485D01*
G01X80460Y63157D02*
X80657Y63354D01*
X80887Y63452D01*
X81149Y63485D01*
X81477Y63419D01*
X81707Y63255D01*
X81773Y63058D01*
X81740Y62861D01*
X81609Y62697D01*
X80952Y62369D01*
X80657Y62140D01*
X80460Y61811D01*
X80394Y61516D01*
X81773D01*
G01X78696Y178985D02*
Y177574D01*
X78827Y177278D01*
X79089Y177082D01*
X79417Y177016D01*
X79746Y177082D01*
X80008Y177278D01*
X80139Y177574D01*
Y178985D01*
G01X81583Y177016D02*
Y178985D01*
X81190Y178591D01*
G01Y177016D02*
X81977D01*
G01X93300Y204633D02*
X85800D01*
Y206967D01*
X86175Y207713D01*
X86675Y208180D01*
X87675Y208367D01*
X88675Y208180D01*
X89300Y207620D01*
X89675Y206967D01*
Y204633D01*
G01Y206967D02*
X93300Y208367D01*
G01X92175Y211947D02*
X92800Y212507D01*
X93175Y213160D01*
X93300Y214000D01*
X93050Y214840D01*
X92550Y215493D01*
X91675Y215960D01*
X90675Y216053D01*
X89675Y215867D01*
X89050Y215400D01*
X88550Y214747D01*
X88425Y214093D01*
X88550Y213440D01*
X89050Y212600D01*
X85800Y212880D01*
Y215400D01*
G01X113300Y204633D02*
X105800D01*
Y206967D01*
X106175Y207713D01*
X106675Y208180D01*
X107675Y208367D01*
X108675Y208180D01*
X109300Y207620D01*
X109675Y206967D01*
Y204633D01*
G01Y206967D02*
X113300Y208367D01*
G01X111800Y211947D02*
X112675Y212507D01*
X113175Y213253D01*
X113300Y214093D01*
X113175Y214840D01*
X112550Y215587D01*
X111800Y216053D01*
X111050Y216147D01*
X110175Y215960D01*
X109550Y215307D01*
X109300Y214653D01*
Y213813D01*
G01Y214653D02*
X108925Y215213D01*
X108300Y215680D01*
X107550Y215867D01*
X106800Y215680D01*
X106175Y215213D01*
X105800Y214373D01*
X105925Y213533D01*
X106425Y212693D01*
G01X128600Y68503D02*
X136100D01*
Y66637D01*
X135725Y65890D01*
X135225Y65330D01*
X134475Y64863D01*
X133600Y64490D01*
X132350Y64397D01*
X131100Y64490D01*
X130225Y64863D01*
X129475Y65330D01*
X128975Y65890D01*
X128600Y66637D01*
Y68503D01*
G01Y58950D02*
X136100D01*
X134600Y60070D01*
G01X128600D02*
Y57830D01*
G01X154525Y107383D02*
X147025D01*
Y109717D01*
X147400Y110463D01*
X147900Y110930D01*
X148900Y111117D01*
X149900Y110930D01*
X150525Y110370D01*
X150900Y109717D01*
Y107383D01*
G01Y109717D02*
X154525Y111117D01*
G01Y116750D02*
X147025D01*
X148525Y115630D01*
G01X154525D02*
Y117870D01*
G01X133300Y204633D02*
X125800D01*
Y206967D01*
X126175Y207713D01*
X126675Y208180D01*
X127675Y208367D01*
X128675Y208180D01*
X129300Y207620D01*
X129675Y206967D01*
Y204633D01*
G01Y206967D02*
X133300Y208367D01*
G01X130175Y212227D02*
X129300Y212880D01*
X128800Y213440D01*
X128550Y214187D01*
X128800Y214840D01*
X129300Y215307D01*
X130050Y215680D01*
X130925Y215773D01*
X131675Y215680D01*
X132425Y215307D01*
X133050Y214747D01*
X133300Y214093D01*
X133050Y213347D01*
X132300Y212693D01*
X131175Y212320D01*
X129925Y212227D01*
X128300Y212413D01*
X127425Y212693D01*
X126550Y213160D01*
X125925Y213813D01*
X125800Y214467D01*
X126050Y215120D01*
X126675Y215587D01*
G01X153300Y204633D02*
X145800D01*
Y206967D01*
X146175Y207713D01*
X146675Y208180D01*
X147675Y208367D01*
X148675Y208180D01*
X149300Y207620D01*
X149675Y206967D01*
Y204633D01*
G01Y206967D02*
X153300Y208367D01*
G01Y214000D02*
X153175Y214653D01*
X152800Y215400D01*
X152175Y215867D01*
X151300Y216053D01*
X150425Y215867D01*
X149675Y215307D01*
X149300Y214467D01*
Y213533D01*
X149050Y212973D01*
X148425Y212507D01*
X147550Y212320D01*
X146675Y212600D01*
X146050Y213253D01*
X145800Y214000D01*
X146050Y214747D01*
X146675Y215400D01*
X147550Y215680D01*
X148425Y215493D01*
X149050Y215027D01*
X149300Y214467D01*
Y213533D01*
X149675Y212693D01*
X150425Y212133D01*
X151300Y211947D01*
X152175Y212133D01*
X152800Y212600D01*
X153175Y213347D01*
X153300Y214000D01*
G01X178500Y27500D02*
G03I-10000J0D01*
G01X166843Y44583D02*
X166463Y44833D01*
X166020Y45000D01*
X165513D01*
X164943Y44750D01*
X164500Y44333D01*
X164183Y43833D01*
X163930Y43000D01*
X163867Y42250D01*
X163993Y41500D01*
X164183Y41000D01*
X164563Y40500D01*
X165007Y40167D01*
X165450Y40000D01*
X165893D01*
X166337Y40167D01*
X166717Y40417D01*
X167033Y40750D01*
G01X171310Y40000D02*
Y45000D01*
X168967Y41417D01*
X172133D01*
G01X172050Y107683D02*
X164550D01*
Y110017D01*
X164925Y110763D01*
X165425Y111230D01*
X166425Y111417D01*
X167425Y111230D01*
X168050Y110670D01*
X168425Y110017D01*
Y107683D01*
G01Y110017D02*
X172050Y111417D01*
G01X165800Y115277D02*
X165050Y115837D01*
X164675Y116490D01*
X164550Y117237D01*
X164800Y118170D01*
X165425Y118823D01*
X166175Y119010D01*
X166925Y118917D01*
X167550Y118543D01*
X168800Y116677D01*
X169675Y115837D01*
X170925Y115277D01*
X172050Y115090D01*
Y119010D01*
G01X173300Y204633D02*
X165800D01*
Y206967D01*
X166175Y207713D01*
X166675Y208180D01*
X167675Y208367D01*
X168675Y208180D01*
X169300Y207620D01*
X169675Y206967D01*
Y204633D01*
G01Y206967D02*
X173300Y208367D01*
G01Y213813D02*
X171675Y214000D01*
X170300Y214280D01*
X169050Y214653D01*
X167675Y215120D01*
X165800Y215867D01*
Y212133D01*
G01X194000Y137500D02*
Y62500D01*
X216000D01*
Y137500D01*
X210000D01*
X207500Y135000D01*
X202500D01*
X200000Y137500D01*
X194000D01*
G01X200057Y144000D02*
Y140417D01*
X200310Y139667D01*
X200817Y139167D01*
X201450Y139000D01*
X202083Y139167D01*
X202590Y139667D01*
X202843Y140417D01*
Y144000D01*
G01X205157Y140000D02*
X205537Y139417D01*
X206043Y139083D01*
X206613Y139000D01*
X207120Y139083D01*
X207627Y139500D01*
X207943Y140000D01*
X208007Y140500D01*
X207880Y141083D01*
X207437Y141500D01*
X206993Y141667D01*
X206423D01*
G01X206993D02*
X207373Y141917D01*
X207690Y142333D01*
X207817Y142833D01*
X207690Y143333D01*
X207373Y143750D01*
X206803Y144000D01*
X206233Y143917D01*
X205663Y143583D01*
G01X196843Y180083D02*
X196463Y180333D01*
X196020Y180500D01*
X195513D01*
X194943Y180250D01*
X194500Y179833D01*
X194183Y179333D01*
X193930Y178500D01*
X193867Y177750D01*
X193993Y177000D01*
X194183Y176500D01*
X194563Y176000D01*
X195007Y175667D01*
X195450Y175500D01*
X195893D01*
X196337Y175667D01*
X196717Y175917D01*
X197033Y176250D01*
G01X199157Y176500D02*
X199537Y175917D01*
X200043Y175583D01*
X200613Y175500D01*
X201120Y175583D01*
X201627Y176000D01*
X201943Y176500D01*
X202007Y177000D01*
X201880Y177583D01*
X201437Y178000D01*
X200993Y178167D01*
X200423D01*
G01X200993D02*
X201373Y178417D01*
X201690Y178833D01*
X201817Y179333D01*
X201690Y179833D01*
X201373Y180250D01*
X200803Y180500D01*
X200233Y180417D01*
X199663Y180083D01*
G01X207500Y192500D02*
G03I-10000J0D01*
G01X193300Y204633D02*
X185800D01*
Y206967D01*
X186175Y207713D01*
X186675Y208180D01*
X187675Y208367D01*
X188675Y208180D01*
X189300Y207620D01*
X189675Y206967D01*
Y204633D01*
G01Y206967D02*
X193300Y208367D01*
G01Y215120D02*
X185800D01*
X191175Y211667D01*
Y216333D01*
G01X142500Y32500D02*
Y26250D01*
G01Y58750D02*
Y52500D01*
G01X147500Y47500D02*
X137500D01*
G01Y32500D02*
Y52500D01*
G01D02*
X147500D01*
G01D02*
Y32500D01*
G01D02*
X137500D01*
G54D13*
G01X36250Y207800D02*
Y223800D01*
G01X43750D02*
Y207800D01*
G01D02*
X36250D01*
G01X53750Y207000D02*
Y223000D01*
G01X61250Y207000D02*
X53750D01*
G01X36250Y223800D02*
X43750D01*
G01X53750Y223000D02*
X61250D01*
G01D02*
Y207000D01*
G01X75500Y226000D02*
Y204000D01*
G01D02*
X84500D01*
G01D02*
Y226000D01*
G01D02*
X75500D01*
G01X95500D02*
Y204000D01*
G01D02*
X104500D01*
G01D02*
Y226000D01*
G01X115500D02*
Y204000D01*
G01D02*
X124500D01*
G01X104500Y226000D02*
X95500D01*
G01X124500D02*
X115500D01*
G01X145725Y106750D02*
X139275D01*
G01D02*
Y118250D01*
G01D02*
X145725D01*
G01D02*
Y106750D01*
G01X124500Y204000D02*
Y226000D01*
G01X135500D02*
Y204000D01*
G01D02*
X144500D01*
G01D02*
Y226000D01*
G01D02*
X135500D01*
G01X163250Y107050D02*
X156800D01*
G01D02*
Y118550D01*
G01X163250D02*
Y107050D01*
G01X156800Y118550D02*
X163250D01*
G01X175500Y226000D02*
Y204000D01*
G01D02*
X184500D01*
G01X155500Y226000D02*
Y204000D01*
G01D02*
X164500D01*
G01D02*
Y226000D01*
G01X184500D02*
X175500D01*
G01X164500D02*
X155500D01*
G01X184500Y204000D02*
Y226000D01*
G54D14*
G01X43560Y36032D02*
Y39969D01*
X44347D01*
X44662Y39772D01*
X44898Y39510D01*
X45095Y39116D01*
X45253Y38657D01*
X45292Y38000D01*
X45253Y37344D01*
X45095Y36885D01*
X44898Y36491D01*
X44662Y36229D01*
X44347Y36032D01*
X43560D01*
G01X47496D02*
X47575Y36885D01*
X47693Y37607D01*
X47851Y38263D01*
X48047Y38985D01*
X48362Y39969D01*
X46788D01*
G01X42560Y63032D02*
Y66969D01*
X43347D01*
X43662Y66772D01*
X43898Y66510D01*
X44095Y66116D01*
X44253Y65657D01*
X44292Y65000D01*
X44253Y64344D01*
X44095Y63885D01*
X43898Y63491D01*
X43662Y63229D01*
X43347Y63032D01*
X42560D01*
G01X47047D02*
Y66969D01*
X45591Y64147D01*
X47559D01*
G01X43221Y90272D02*
Y94209D01*
X44008D01*
X44323Y94012D01*
X44559Y93750D01*
X44756Y93356D01*
X44914Y92897D01*
X44953Y92240D01*
X44914Y91584D01*
X44756Y91125D01*
X44559Y90731D01*
X44323Y90469D01*
X44008Y90272D01*
X43221D01*
G01X46370Y91059D02*
X46606Y90600D01*
X46921Y90338D01*
X47275Y90272D01*
X47590Y90338D01*
X47905Y90666D01*
X48102Y91059D01*
X48141Y91453D01*
X48063Y91912D01*
X47787Y92240D01*
X47512Y92372D01*
X47157D01*
G01X47512D02*
X47748Y92569D01*
X47945Y92897D01*
X48023Y93290D01*
X47945Y93684D01*
X47748Y94012D01*
X47393Y94209D01*
X47039Y94143D01*
X46685Y93881D01*
G01X43221Y117772D02*
Y121709D01*
X44008D01*
X44323Y121512D01*
X44559Y121250D01*
X44756Y120856D01*
X44914Y120397D01*
X44953Y119740D01*
X44914Y119084D01*
X44756Y118625D01*
X44559Y118231D01*
X44323Y117969D01*
X44008Y117772D01*
X43221D01*
G01X46488Y119412D02*
X46764Y119872D01*
X47000Y120134D01*
X47315Y120265D01*
X47590Y120134D01*
X47787Y119872D01*
X47945Y119478D01*
X47984Y119019D01*
X47945Y118625D01*
X47787Y118231D01*
X47551Y117903D01*
X47275Y117772D01*
X46960Y117903D01*
X46685Y118297D01*
X46527Y118887D01*
X46488Y119544D01*
X46567Y120397D01*
X46685Y120856D01*
X46882Y121315D01*
X47157Y121643D01*
X47433Y121709D01*
X47708Y121578D01*
X47905Y121250D01*
G01X42060Y147532D02*
Y151469D01*
X42847D01*
X43162Y151272D01*
X43398Y151010D01*
X43595Y150616D01*
X43753Y150157D01*
X43792Y149500D01*
X43753Y148844D01*
X43595Y148385D01*
X43398Y147991D01*
X43162Y147729D01*
X42847Y147532D01*
X42060D01*
G01X45327Y150813D02*
X45563Y151206D01*
X45839Y151403D01*
X46154Y151469D01*
X46547Y151338D01*
X46823Y151010D01*
X46902Y150616D01*
X46862Y150222D01*
X46705Y149894D01*
X45918Y149238D01*
X45563Y148779D01*
X45327Y148122D01*
X45248Y147532D01*
X46902D01*
G01X42060Y176032D02*
Y179969D01*
X42847D01*
X43162Y179772D01*
X43398Y179510D01*
X43595Y179116D01*
X43753Y178657D01*
X43792Y178000D01*
X43753Y177344D01*
X43595Y176885D01*
X43398Y176491D01*
X43162Y176229D01*
X42847Y176032D01*
X42060D01*
G01X45209Y176622D02*
X45445Y176294D01*
X45721Y176098D01*
X46075Y176032D01*
X46429Y176163D01*
X46705Y176426D01*
X46902Y176885D01*
X46941Y177410D01*
X46862Y177935D01*
X46665Y178263D01*
X46390Y178525D01*
X46114Y178591D01*
X45839Y178525D01*
X45485Y178263D01*
X45603Y179969D01*
X46665D01*
G01X109560Y41032D02*
Y44969D01*
X110347D01*
X110662Y44772D01*
X110898Y44510D01*
X111095Y44116D01*
X111253Y43657D01*
X111292Y43000D01*
X111253Y42344D01*
X111095Y41885D01*
X110898Y41491D01*
X110662Y41229D01*
X110347Y41032D01*
X109560D01*
G01X112906Y41491D02*
X113181Y41163D01*
X113496Y41032D01*
X113811Y41163D01*
X114087Y41557D01*
X114284Y42147D01*
X114362Y42738D01*
Y43460D01*
X114284Y44050D01*
X114087Y44575D01*
X113851Y44838D01*
X113575Y44969D01*
X113260Y44838D01*
X113024Y44575D01*
X112866Y44182D01*
X112788Y43657D01*
X112866Y43197D01*
X113063Y42738D01*
X113299Y42475D01*
X113575Y42410D01*
X113890Y42541D01*
X114126Y42869D01*
X114362Y43460D01*
G01X107485Y66032D02*
Y69969D01*
X108272D01*
X108587Y69772D01*
X108823Y69510D01*
X109020Y69116D01*
X109178Y68657D01*
X109217Y68000D01*
X109178Y67344D01*
X109020Y66885D01*
X108823Y66491D01*
X108587Y66229D01*
X108272Y66032D01*
X107485D01*
G01X111500D02*
Y69969D01*
X111028Y69182D01*
G01Y66032D02*
X111972D01*
G01X113901Y69313D02*
X114137Y69706D01*
X114413Y69903D01*
X114728Y69969D01*
X115121Y69838D01*
X115397Y69510D01*
X115476Y69116D01*
X115436Y68722D01*
X115279Y68394D01*
X114492Y67738D01*
X114137Y67279D01*
X113901Y66622D01*
X113822Y66032D01*
X115476D01*
G01X106485Y92532D02*
Y96469D01*
X107272D01*
X107587Y96272D01*
X107823Y96010D01*
X108020Y95616D01*
X108178Y95157D01*
X108217Y94500D01*
X108178Y93844D01*
X108020Y93385D01*
X107823Y92991D01*
X107587Y92729D01*
X107272Y92532D01*
X106485D01*
G01X110500D02*
Y96469D01*
X110028Y95682D01*
G01Y92532D02*
X110972D01*
G01X112783Y93319D02*
X113019Y92860D01*
X113334Y92598D01*
X113688Y92532D01*
X114003Y92598D01*
X114318Y92926D01*
X114515Y93319D01*
X114554Y93713D01*
X114476Y94172D01*
X114200Y94500D01*
X113925Y94632D01*
X113570D01*
G01X113925D02*
X114161Y94829D01*
X114358Y95157D01*
X114436Y95550D01*
X114358Y95944D01*
X114161Y96272D01*
X113806Y96469D01*
X113452Y96403D01*
X113098Y96141D01*
G01X106985Y121032D02*
Y124969D01*
X107772D01*
X108087Y124772D01*
X108323Y124510D01*
X108520Y124116D01*
X108678Y123657D01*
X108717Y123000D01*
X108678Y122344D01*
X108520Y121885D01*
X108323Y121491D01*
X108087Y121229D01*
X107772Y121032D01*
X106985D01*
G01X111000D02*
Y124969D01*
X110528Y124182D01*
G01Y121032D02*
X111472D01*
G01X114149D02*
Y124969D01*
X113677Y124182D01*
G01Y121032D02*
X114621D01*
G01X110060Y150532D02*
Y154469D01*
X110847D01*
X111162Y154272D01*
X111398Y154010D01*
X111595Y153616D01*
X111753Y153157D01*
X111792Y152500D01*
X111753Y151844D01*
X111595Y151385D01*
X111398Y150991D01*
X111162Y150729D01*
X110847Y150532D01*
X110060D01*
G01X114075D02*
X114351Y150598D01*
X114665Y150794D01*
X114862Y151122D01*
X114941Y151582D01*
X114862Y152041D01*
X114626Y152435D01*
X114272Y152632D01*
X113878D01*
X113642Y152763D01*
X113445Y153091D01*
X113366Y153550D01*
X113485Y154010D01*
X113760Y154338D01*
X114075Y154469D01*
X114390Y154338D01*
X114665Y154010D01*
X114784Y153550D01*
X114705Y153091D01*
X114508Y152763D01*
X114272Y152632D01*
X113878D01*
X113524Y152435D01*
X113288Y152041D01*
X113209Y151582D01*
X113288Y151122D01*
X113485Y150794D01*
X113799Y150598D01*
X114075Y150532D01*
G01X107485Y178532D02*
Y182469D01*
X108272D01*
X108587Y182272D01*
X108823Y182010D01*
X109020Y181616D01*
X109178Y181157D01*
X109217Y180500D01*
X109178Y179844D01*
X109020Y179385D01*
X108823Y178991D01*
X108587Y178729D01*
X108272Y178532D01*
X107485D01*
G01X111500D02*
Y182469D01*
X111028Y181682D01*
G01Y178532D02*
X111972D01*
G01X114649Y182469D02*
X114334Y182338D01*
X114098Y182010D01*
X113940Y181616D01*
X113822Y181091D01*
X113783Y180500D01*
X113822Y179910D01*
X113940Y179385D01*
X114098Y178991D01*
X114334Y178663D01*
X114649Y178532D01*
X114964Y178663D01*
X115200Y178991D01*
X115358Y179385D01*
X115476Y179910D01*
X115515Y180500D01*
X115476Y181091D01*
X115358Y181616D01*
X115200Y182010D01*
X114964Y182338D01*
X114649Y182469D01*
G54D15*
G01X169645Y171778D02*
X169908Y171614D01*
X170203Y171516D01*
X170466D01*
X170728Y171614D01*
X170925Y171778D01*
X171024Y172008D01*
X170958Y172238D01*
X170794Y172435D01*
X170499Y172566D01*
X170105Y172632D01*
X169875Y172763D01*
X169777Y172993D01*
X169842Y173222D01*
X170006Y173387D01*
X170236Y173485D01*
X170466D01*
X170695Y173419D01*
X170892Y173255D01*
G01X171844Y171516D02*
Y173485D01*
X172665D01*
X172927Y173387D01*
X173091Y173255D01*
X173157Y172993D01*
X173091Y172730D01*
X172894Y172566D01*
X172665Y172468D01*
X171844D01*
G01X172665D02*
X173157Y171516D01*
G01X174666D02*
Y173485D01*
X174273Y173091D01*
G01Y171516D02*
X175060D01*
G01X207145Y171778D02*
X207408Y171614D01*
X207703Y171516D01*
X207966D01*
X208228Y171614D01*
X208425Y171778D01*
X208524Y172008D01*
X208458Y172238D01*
X208294Y172435D01*
X207999Y172566D01*
X207605Y172632D01*
X207375Y172763D01*
X207277Y172993D01*
X207342Y173222D01*
X207506Y173387D01*
X207736Y173485D01*
X207966D01*
X208195Y173419D01*
X208392Y173255D01*
G01X209344Y171516D02*
Y173485D01*
X210165D01*
X210427Y173387D01*
X210591Y173255D01*
X210657Y172993D01*
X210591Y172730D01*
X210394Y172566D01*
X210165Y172468D01*
X209344D01*
G01X210165D02*
X210657Y171516D01*
G01X211543Y173157D02*
X211740Y173354D01*
X211970Y173452D01*
X212232Y173485D01*
X212560Y173419D01*
X212790Y173255D01*
X212856Y173058D01*
X212823Y172861D01*
X212692Y172697D01*
X212035Y172369D01*
X211740Y172140D01*
X211543Y171811D01*
X211477Y171516D01*
X212856D01*
G54D16*
G01X67106Y62008D02*
G02I-492J0D01*
G01X93878Y152992D02*
G02I-492J0D01*
G54D17*
G01X28395Y15000D02*
G03I-13392J0D01*
G01X41043Y39665D02*
X33957D01*
G01X37500Y41240D02*
X41043D01*
Y33760D01*
X33957D01*
Y41240D01*
X37500D01*
G01X41043Y67165D02*
X33957D01*
G01X37500Y68740D02*
X41043D01*
Y61260D01*
X33957D01*
Y68740D01*
X37500D01*
G01X41043Y94665D02*
X33957D01*
G01X37500Y96240D02*
X41043D01*
Y88760D01*
X33957D01*
Y96240D01*
X37500D01*
G01Y123740D02*
X41043D01*
Y116260D01*
X33957D01*
Y123740D01*
X37500D01*
G01Y153740D02*
X41043D01*
Y146260D01*
X33957D01*
Y153740D01*
X37500D01*
G01X41043Y122165D02*
X33957D01*
G01X41043Y152165D02*
X33957D01*
G01Y177835D02*
X41043D01*
G01X37500Y176260D02*
X33957D01*
Y183740D01*
X41043D01*
Y176260D01*
X37500D01*
G01X72717Y39961D02*
X87283D01*
Y60039D01*
X72717D01*
Y39961D01*
G01X87283Y175039D02*
X72717D01*
Y154961D01*
X87283D01*
Y175039D01*
G01X116457Y40335D02*
X123543D01*
G01X120000Y38760D02*
X116457D01*
Y46240D01*
X123543D01*
Y38760D01*
X120000D01*
G01X116457Y65335D02*
X123543D01*
G01X120000Y63760D02*
X116457D01*
Y71240D01*
X123543D01*
Y63760D01*
X120000D01*
G01X116457Y92835D02*
X123543D01*
G01X120000Y91260D02*
X116457D01*
Y98740D01*
X123543D01*
Y91260D01*
X120000D01*
G01X116457Y120335D02*
X123543D01*
G01X120000Y118760D02*
X116457D01*
Y126240D01*
X123543D01*
Y118760D01*
X120000D01*
G01X116457Y150335D02*
X123543D01*
G01X120000Y148760D02*
X116457D01*
Y156240D01*
X123543D01*
Y148760D01*
X120000D01*
G01X116457Y177835D02*
X123543D01*
G01X120000Y176260D02*
X116457D01*
Y183740D01*
X123543D01*
Y176260D01*
X120000D01*
G01X182343Y150157D02*
X162657D01*
Y169843D01*
X182343D01*
Y150157D01*
G01X219843D02*
X200157D01*
Y169843D01*
X219843D01*
Y150157D01*
G01X238395Y15000D02*
G03I-13392J0D01*
G01Y225000D02*
G03I-13392J0D01*
M02*
