G04 ================== begin FILE IDENTIFICATION RECORD ==================*
G04 Layout Name:  PROIECT_TIE.brd*
G04 Film Name:    TOP*
G04 File Format:  Gerber RS274X*
G04 File Origin:  Cadence Allegro 17.2-S025*
G04 Origin Date:  Mon May 29 01:11:44 2023*
G04 *
G04 Layer:  ETCH/TOP*
G04 Layer:  PIN/TOP*
G04 Layer:  VIA CLASS/TOP*
G04 *
G04 Offset:    (0.00 0.00)*
G04 Mirror:    No*
G04 Mode:      Positive*
G04 Rotation:  0*
G04 FullContactRelief:  No*
G04 UndefLineWidth:     8.00*
G04 ================== end FILE IDENTIFICATION RECORD ====================*
%FSLAX25Y25*MOIN*%
%IR0*IPPOS*OFA0.00000B0.00000*MIA0B0*SFA1.00000B1.00000*%
%ADD20R,.07874X.07874*%
%ADD12C,.06*%
%ADD11C,.024*%
%ADD17C,.055*%
%ADD14R,.05X.05*%
%ADD16R,.06X.06*%
%ADD18R,.055X.055*%
%ADD13R,.03346X.03346*%
%ADD15R,.04X.014*%
%ADD19R,.038X.032*%
%ADD10C,.15748*%
%ADD21R,.07874X.05118*%
%ADD22C,.012*%
%ADD23C,.044*%
G75*
%LPD*%
G75*
G54D10*
X15003Y15000D03*
X225003D03*
Y225000D03*
G54D11*
X22500Y180627D03*
X25500Y202000D03*
X49500Y46000D03*
X30000Y68000D03*
X37500Y77500D03*
Y107500D03*
X30000Y149000D03*
X38000Y138500D03*
X56000Y161161D03*
X37500Y195000D03*
X47500Y211600D03*
X30000Y230000D03*
X61500Y56398D03*
X60957Y41043D03*
X84500Y59000D03*
Y43602D03*
Y67500D03*
X61500Y158602D03*
X78000Y157000D03*
X82500Y200000D03*
X76000Y202000D03*
X62500Y210800D03*
X88000Y221500D03*
X97000Y56398D03*
X101500Y53839D03*
X100000Y110000D03*
X114000Y130500D03*
X98000Y158602D03*
X97000Y173957D03*
X97500Y179500D03*
X111000Y161000D03*
Y190000D03*
X114000Y197000D03*
X107000Y221500D03*
X120000Y55000D03*
Y80000D03*
Y110000D03*
X135000Y172500D03*
Y154500D03*
X128500Y221500D03*
X147500D03*
X155000Y27500D03*
X150000Y110000D03*
X167000Y221500D03*
X180000Y110000D03*
Y140000D03*
X190000Y160000D03*
X185000Y175000D03*
X186500Y221500D03*
X227500Y90000D03*
Y61000D03*
X220000Y100000D03*
X227500Y110000D03*
Y160000D03*
G54D20*
X180374D03*
X217874D03*
G54D21*
X164626Y164528D03*
Y155472D03*
X202126Y164528D03*
Y155472D03*
G54D12*
X10000Y220000D03*
Y230000D03*
X173500Y27500D03*
X163500D03*
X190000Y70000D03*
Y80000D03*
Y90000D03*
Y100000D03*
Y110000D03*
Y120000D03*
X202500Y192500D03*
X192500D03*
X220000Y70000D03*
Y80000D03*
Y90000D03*
Y100000D03*
Y110000D03*
Y120000D03*
Y130000D03*
G54D22*
G01X22500Y180627D02*
Y47292D01*
X25796Y43996D01*
X37500D01*
G01X25500Y202000D02*
Y60204D01*
X27200Y58504D01*
X37500D01*
G01X135000Y154500D02*
X131500Y151000D01*
Y17000D01*
X53500D01*
Y46161D01*
X68386D01*
G01X49500Y46000D02*
Y57998D01*
X50700Y59198D01*
X64300D01*
Y58957D01*
X68386D01*
G01X37500Y31004D02*
X43504D01*
X45000Y32500D01*
Y60500D01*
X62500Y78000D01*
Y108800D01*
X63700Y110000D01*
X100000D01*
G01X37500Y71496D02*
X38504Y72500D01*
X51300D01*
X52500Y73700D01*
Y162500D01*
X53200Y163200D01*
Y163961D01*
X58800D01*
Y163800D01*
X62300D01*
Y163720D01*
X68386D01*
G01X37500Y86004D02*
Y77500D01*
G01X68386Y166280D02*
X51280D01*
X50000Y165000D01*
Y101200D01*
X48800Y100000D01*
X38504D01*
X37500Y98996D01*
G01Y113504D02*
Y107500D01*
G01Y126496D02*
X38504Y127500D01*
X46300D01*
X47500Y128700D01*
Y167500D01*
X48839Y168839D01*
X68386D01*
G01X37500Y143504D02*
Y139000D01*
X38000Y138500D01*
G01X68386Y161161D02*
X56000D01*
G01X68386Y171398D02*
X48286D01*
X45000Y168112D01*
Y158700D01*
X43800Y157500D01*
X38504D01*
X37500Y156496D01*
G01X68386Y173957D02*
X65286D01*
X62500Y175000D01*
X42500D01*
X40273Y173504D01*
X37500D01*
G01Y195000D02*
Y186496D01*
G01X68386Y56398D02*
X61500D01*
G01X68386Y41043D02*
X60957D01*
G01X68386Y43602D02*
X71486D01*
X71588Y43500D01*
X82098D01*
X82200Y43602D01*
X84500D01*
G01Y59000D02*
X88514D01*
Y58957D01*
X91614D01*
G01X68386Y158602D02*
X61500D01*
G01X78000Y157000D02*
X71986D01*
Y156043D01*
X68386D01*
G01X82500Y200000D02*
Y184700D01*
X83700Y183500D01*
X105000D01*
Y155000D01*
X92657D01*
X91614Y156043D01*
G01X76000Y202000D02*
X78500D01*
X80000Y203500D01*
Y208500D01*
G01X120000Y186496D02*
X88700D01*
X87500Y187696D01*
Y207500D01*
X86500Y208500D01*
X80000D01*
G01X91614Y56398D02*
X97000D01*
G01X91614Y53839D02*
X101500D01*
G01X91614Y51280D02*
X98700D01*
Y51039D01*
X106300D01*
X107500Y52239D01*
Y143800D01*
X109704Y146004D01*
X120000D01*
G01Y36004D02*
X91614D01*
Y41043D01*
G01Y48720D02*
X108800D01*
X110000Y49920D01*
Y113800D01*
X112204Y116004D01*
X120000D01*
G01X91614Y43602D02*
X113300D01*
X114500Y44802D01*
Y59304D01*
X116200Y61004D01*
X120000D01*
G01X91614Y46161D02*
X110800D01*
X112200Y47561D01*
Y86500D01*
X114204Y88504D01*
X120000D01*
G01X114000Y130500D02*
X115627Y128873D01*
X117104D01*
X117227Y128996D01*
X120000D01*
G01X91614Y158602D02*
X98000D01*
G01X91614Y173957D02*
X97000D01*
G01X91614Y168839D02*
X102531D01*
Y179500D01*
X97500D01*
G01X111000Y161000D02*
X112627Y159373D01*
X116850D01*
X117227Y158996D01*
X120000D01*
G01X111000Y190000D02*
X93700D01*
X92500Y191200D01*
Y207500D01*
X93500Y208500D01*
X100000D01*
G01X114000Y197000D02*
X120000Y203000D01*
Y208500D01*
G01Y55000D02*
Y48996D01*
G01D02*
X129300Y58296D01*
Y151912D01*
X131000Y153612D01*
Y157300D01*
X133700Y160000D01*
X143800D01*
X145000Y161200D01*
Y181300D01*
X146200Y182500D01*
X178800D01*
X180000Y183700D01*
Y208500D01*
G01X120000Y80000D02*
Y73996D01*
G01X160000Y208500D02*
Y186200D01*
X158800Y185000D01*
X143700D01*
X142500Y183800D01*
Y166200D01*
X141300Y165000D01*
X132500D01*
X128500Y161000D01*
Y154224D01*
X127100Y152824D01*
Y74800D01*
X126296Y73996D01*
X120000D01*
G01X150000Y110000D02*
X147700D01*
X147400Y109700D01*
X142475D01*
G01X185000Y175000D02*
X153200D01*
X152000Y173800D01*
Y116500D01*
X150800Y115300D01*
X142475D01*
G01X120000Y110000D02*
Y101496D01*
G01X140000Y208500D02*
Y168700D01*
X138800Y167500D01*
X128700D01*
X126000Y164800D01*
Y154836D01*
X124900Y153736D01*
Y100100D01*
X123845Y99045D01*
X122451D01*
X120000Y101496D01*
G01X135000Y172500D02*
X122773Y173504D01*
X120000D01*
G01X160000Y115600D02*
X157000D01*
Y117500D01*
X155000D01*
Y27500D01*
G01X227500Y61000D02*
X161200D01*
X160000Y62200D01*
Y110000D01*
G01Y115600D02*
Y145000D01*
X195000D01*
Y155000D01*
G01X185000Y175000D02*
X182500Y172500D01*
X164626D01*
Y164528D01*
G01D02*
X157500D01*
Y155000D01*
X159589D01*
Y155472D01*
X164626D01*
G01X180000Y110000D02*
Y140000D01*
G01X190000Y160000D02*
X180374D01*
G01X195000Y155000D02*
X197089D01*
Y155472D01*
X202126D01*
G01X195000Y155000D02*
Y164528D01*
X202126D01*
G01X227500Y110000D02*
Y90000D01*
G01Y160000D02*
X217874D01*
G54D13*
X37500Y58504D03*
Y31004D03*
Y43996D03*
Y86004D03*
Y71496D03*
Y98996D03*
Y113504D03*
Y143504D03*
Y126496D03*
Y156496D03*
Y173504D03*
Y186496D03*
X120000Y48996D03*
Y36004D03*
Y73996D03*
Y61004D03*
Y88504D03*
Y116004D03*
Y101496D03*
Y146004D03*
Y128996D03*
Y158996D03*
Y173504D03*
Y186496D03*
G54D23*
G01X40000Y220000D02*
X30000Y230000D01*
G01Y68000D02*
Y149000D01*
G01D02*
Y230000D01*
G01X40000Y211600D02*
X47500D01*
G01X57500Y210800D02*
X62500D01*
G01X30000Y230000D02*
X57500D01*
G01D02*
Y219200D01*
G01X220000Y130000D02*
X225700D01*
X226200Y130500D01*
X229500D01*
X231900Y132900D01*
Y203600D01*
X232000D01*
Y208000D01*
X199000D01*
Y230000D01*
X57500D01*
G01X80000Y221500D02*
X88000D01*
G01X100000D02*
X107000D01*
G01X120000D02*
X128500D01*
G01X140000D02*
X147500D01*
G01X160000D02*
X167000D01*
G01X180000D02*
X186500D01*
G54D14*
X40000Y220000D03*
Y211600D03*
X57500Y219200D03*
Y210800D03*
G54D15*
X68386Y41043D03*
Y43602D03*
Y46161D03*
Y48720D03*
Y51280D03*
Y53839D03*
Y56398D03*
Y58957D03*
Y156043D03*
Y158602D03*
Y161161D03*
Y163720D03*
Y166280D03*
Y168839D03*
Y171398D03*
Y173957D03*
X91614Y56398D03*
Y53839D03*
Y51280D03*
Y48720D03*
Y46161D03*
Y43602D03*
Y41043D03*
Y58957D03*
Y173957D03*
Y171398D03*
Y168839D03*
Y166280D03*
Y163720D03*
Y161161D03*
Y158602D03*
Y156043D03*
G54D16*
X80000Y208500D03*
Y221500D03*
X100000Y208500D03*
X120000D03*
X100000Y221500D03*
X120000D03*
X140000Y208500D03*
Y221500D03*
X180000Y208500D03*
X160000D03*
X180000Y221500D03*
X160000D03*
X190000Y130000D03*
G54D17*
X142500Y20000D03*
G54D18*
Y65000D03*
G54D19*
X142475Y109700D03*
Y115300D03*
X160000Y110000D03*
Y115600D03*
M02*
